<?xml version="1.0" encoding="utf-8"?>
<!-- Generator: Adobe Illustrator 16.0.0, SVG Export Plug-In . SVG Version: 6.00 Build 0)  -->
<!DOCTYPE svg PUBLIC "-//W3C//DTD SVG 1.1//EN" "http://www.w3.org/Graphics/SVG/1.1/DTD/svg11.dtd">
<svg version="1.1" id="Layer_1" xmlns="http://www.w3.org/2000/svg" xmlns:xlink="http://www.w3.org/1999/xlink" x="0px" y="0px"
	 width="516.912px" height="75.735px" viewBox="0 0 516.912 75.735" enable-background="new 0 0 516.912 75.735"
	 xml:space="preserve">
<path fill="#FFFFFF" d="M11.029,10.764H29.45c1.596,0,3.355,0.056,5.28,0.171c1.921,0.115,3.847,0.352,5.781,0.697
	c1.934,0.351,3.806,0.841,5.614,1.475c1.809,0.626,3.41,1.454,4.816,2.473c1.407,1.021,2.53,2.273,3.368,3.754
	c0.839,1.484,1.254,3.243,1.254,5.283c0,1.21-0.135,2.419-0.424,3.616c-0.28,1.2-0.794,2.305-1.529,3.311
	c-0.735,1.007-1.741,1.885-3.017,2.633c-1.276,0.746-2.904,1.274-4.897,1.583c2.169,0.129,4.094,0.629,5.786,1.493
	c1.691,0.864,3.116,1.939,4.275,3.233c1.167,1.291,2.047,2.715,2.651,4.275c0.609,1.561,0.911,3.103,0.911,4.622
	c0,2.033-0.41,4.018-1.236,5.938c-0.829,1.922-2.213,3.635-4.162,5.149c-1.948,1.506-4.522,2.724-7.72,3.635
	c-3.197,0.916-7.17,1.371-11.918,1.371H11.029V10.764z M33.779,33.284c1.217,0,2.322-0.174,3.333-0.521
	c1.005-0.352,1.867-0.807,2.588-1.375c0.727-0.568,1.286-1.224,1.687-1.973c0.401-0.748,0.599-1.524,0.599-2.322
	c0-1.238-0.244-2.257-0.735-3.058c-0.496-0.797-1.28-1.431-2.363-1.896c-1.082-0.462-2.489-0.787-4.216-0.966
	c-1.727-0.18-3.833-0.272-6.309-0.272v12.383H33.779z M28.363,55.574h7.008c2.214,0,3.873-0.572,4.969-1.723
	c1.096-1.15,1.646-2.634,1.646-4.469c0-1.086-0.189-2.016-0.563-2.782c-0.374-0.776-1.064-1.416-2.07-1.921
	c-1.005-0.5-2.39-0.875-4.158-1.119c-1.772-0.243-4.045-0.37-6.832-0.37V55.574z"/>
<polygon fill="#FFFFFF" points="66.841,10.762 84.175,10.762 84.175,54.333 102.75,54.333 102.75,65.48 66.841,65.48 "/>
<path fill="#FFFFFF" d="M168.388,38.237c0-4.41,0.793-8.376,2.376-11.898c1.593-3.523,3.739-6.516,6.448-8.978
	c2.706-2.464,5.854-4.354,9.444-5.67c3.584-1.315,7.386-1.971,11.413-1.971c2.813,0,5.678,0.269,8.59,0.812
	c2.913,0.541,5.816,1.52,8.708,2.942l-2.399,12.38c-2.272-1.237-4.519-2.167-6.732-2.785c-2.224-0.62-4.256-0.929-6.114-0.929
	c-2.246,0-4.257,0.365-6.039,1.103c-1.78,0.735-3.291,1.797-4.526,3.192c-1.236,1.394-2.183,3.085-2.846,5.069
	c-0.653,1.986-0.988,4.23-0.988,6.732c0,2.5,0.335,4.746,0.988,6.73c0.663,1.989,1.609,3.68,2.846,5.073
	c1.235,1.394,2.746,2.458,4.526,3.188c1.782,0.74,3.793,1.109,6.039,1.109c1.858,0,3.891-0.316,6.114-0.929
	c2.214-0.622,4.46-1.551,6.732-2.787l2.399,12.382c-2.892,1.39-5.795,2.337-8.708,2.841c-2.912,0.506-5.776,0.758-8.59,0.758
	c-4.027,0-7.829-0.649-11.413-1.953c-3.59-1.307-6.738-3.179-9.444-5.613c-2.709-2.44-4.855-5.411-6.448-8.92
	C169.181,46.609,168.388,42.649,168.388,38.237"/>
<polygon fill="#FFFFFF" points="241.147,42.343 241.147,65.477 223.808,65.477 223.808,10.764 241.147,10.764 241.147,34.874 
	253.529,10.764 273.768,10.764 258.097,37.002 273.768,65.477 253.529,65.477 242.381,39.71 "/>
<polygon fill="#FFFFFF" points="293.307,65.48 293.307,23.377 280.923,23.377 280.923,10.762 323.297,10.762 323.297,23.377 
	310.641,23.377 310.641,65.48 "/>
<path fill="#FFFFFF" d="M357.285,66.062c-3.806,0-7.224-0.554-10.25-1.667c-3.029-1.114-5.604-2.788-7.725-5.019
	c-2.118-2.233-3.742-5.038-4.865-8.416c-1.127-3.368-1.686-7.318-1.686-11.836V10.767h17.172v28.429c0,2.529,0.121,4.78,0.382,6.746
	c0.254,1.966,0.686,3.634,1.3,5.001c0.617,1.366,1.433,2.404,2.453,3.125c1.02,0.712,2.299,1.073,3.833,1.073
	c1.687,0,3.048-0.361,4.081-1.073c1.037-0.721,1.84-1.759,2.412-3.125c0.576-1.367,0.965-3.035,1.172-5.001
	c0.203-1.966,0.303-4.216,0.303-6.746V10.767h14.335v28.357c0,4.545-0.446,8.504-1.344,11.878c-0.893,3.373-2.277,6.177-4.158,8.41
	c-1.875,2.232-4.252,3.9-7.129,5C364.699,65.513,361.271,66.062,357.285,66.062"/>
<path fill="#FFFFFF" d="M415.086,10.764h18.42c1.597,0,3.36,0.056,5.285,0.171c1.921,0.115,3.847,0.352,5.782,0.697
	c1.934,0.351,3.806,0.841,5.613,1.475c1.804,0.626,3.409,1.454,4.816,2.473c1.402,1.021,2.524,2.273,3.363,3.754
	c0.844,1.484,1.259,3.243,1.259,5.283c0,1.21-0.141,2.419-0.424,3.616c-0.284,1.2-0.794,2.305-1.528,3.311
	c-0.736,1.007-1.741,1.885-3.022,2.633c-1.276,0.746-2.903,1.274-4.893,1.583c2.169,0.129,4.096,0.629,5.786,1.493
	c1.687,0.864,3.115,1.939,4.274,3.233c1.163,1.291,2.047,2.715,2.652,4.275c0.608,1.561,0.905,3.103,0.905,4.622
	c0,2.033-0.41,4.018-1.235,5.938c-0.824,1.922-2.214,3.635-4.162,5.149c-1.947,1.506-4.518,2.724-7.72,3.635
	c-3.192,0.916-7.171,1.371-11.918,1.371h-23.255V10.764z M437.841,33.284c1.213,0,2.322-0.174,3.327-0.521
	c1.006-0.352,1.871-0.807,2.588-1.375c0.728-0.568,1.285-1.224,1.687-1.973c0.401-0.748,0.6-1.524,0.6-2.322
	c0-1.238-0.243-2.257-0.734-3.058c-0.487-0.797-1.276-1.431-2.363-1.896c-1.077-0.462-2.488-0.787-4.216-0.966
	c-1.727-0.18-3.833-0.272-6.309-0.272v12.383H437.841z M432.42,55.574h7.007c2.214,0,3.874-0.572,4.974-1.723
	c1.093-1.15,1.642-2.634,1.642-4.469c0-1.086-0.188-2.016-0.563-2.782c-0.374-0.776-1.06-1.416-2.064-1.921
	c-1.01-0.5-2.395-0.875-4.162-1.119c-1.768-0.243-4.045-0.37-6.832-0.37V55.574z"/>
<polygon fill="#FFFFFF" points="469.699,10.762 508.087,10.762 508.087,20.903 487.033,20.903 487.033,32.47 505.612,32.47 
	505.612,42.379 487.033,42.379 487.033,54.333 508.087,54.333 508.087,65.48 469.699,65.48 "/>
<polygon fill="#FFFFFF" points="383.827,66.171 406.347,66.171 395.092,49.387 "/>
<path fill="#FFFFFF" d="M159.212,31.175c-0.493-2.335-1.237-4.561-2.229-6.676s-2.236-4.072-3.734-5.882
	c-1.497-1.807-3.256-3.366-5.285-4.683c-2.02-1.31-4.306-2.345-6.844-3.094c-2.54-0.748-5.362-1.123-8.456-1.123
	c-3.094,0-5.917,0.375-8.455,1.123c-2.539,0.749-4.815,1.784-6.832,3.094c-2.011,1.317-3.766,2.876-5.262,4.683
	c-1.498,1.81-2.733,3.768-3.712,5.882c-0.983,2.115-1.717,4.341-2.209,6.676c-0.487,2.334-0.73,4.688-0.73,7.062
	c0,2.401,0.198,4.76,0.599,7.082c0.398,2.327,1.042,4.536,1.935,6.638c0.884,2.101,2.034,4.05,3.44,5.844s3.12,3.337,5.145,4.64
	c2.029,1.304,4.369,2.322,7.026,3.057c2.655,0.736,5.672,1.105,9.055,1.105c3.377,0,6.403-0.369,9.073-1.105
	c2.669-0.734,5.01-1.753,7.026-3.057c2.011-1.303,3.725-2.846,5.145-4.64c1.42-1.794,2.574-3.743,3.462-5.844
	c0.893-2.102,1.542-4.311,1.953-6.638c0.416-2.322,0.623-4.681,0.623-7.082C159.946,35.864,159.698,33.509,159.212,31.175z
	 M127.176,49.377V26.86l16.785,11.262L127.176,49.377z"/>
</svg>
