<?xml version="1.0" encoding="utf-8"?>
<!-- Generator: Adobe Illustrator 19.2.1, SVG Export Plug-In . SVG Version: 6.00 Build 0)  -->
<svg version="1.1" id="Layer_1" xmlns="http://www.w3.org/2000/svg" xmlns:xlink="http://www.w3.org/1999/xlink" x="0px" y="0px"
	 viewBox="0 0 1541.9 193.3" style="enable-background:new 0 0 1541.9 193.3;" xml:space="preserve">
<style type="text/css">
	.st0{fill:#F26728;}
</style>
<g>
	<path class="st0" d="M11.9,16.2h55c4.8,0,10,0.2,15.8,0.5c5.7,0.3,11.5,1,17.3,2.1c5.8,1,11.4,2.5,16.8,4.4
		c5.4,1.9,10.2,4.4,14.4,7.4c4.2,3,7.5,6.8,10.1,11.2c2.5,4.4,3.8,9.7,3.8,15.8c0,3.6-0.4,7.2-1.3,10.8c-0.8,3.6-2.4,6.9-4.6,9.9
		c-2.2,3-5.2,5.6-9,7.9c-3.8,2.2-8.7,3.8-14.6,4.7c6.5,0.4,12.2,1.9,17.3,4.4c5,2.6,9.3,5.8,12.8,9.6s6.1,8.1,7.9,12.8
		c1.8,4.7,2.7,9.3,2.7,13.8c0,6.1-1.2,12-3.7,17.7c-2.5,5.7-6.6,10.9-12.4,15.4s-13.5,8.1-23.1,10.9c-9.6,2.7-21.4,4.1-35.6,4.1
		H11.9V16.2z M79.9,83.5c3.6,0,6.9-0.5,9.9-1.6c3-1,5.6-2.4,7.7-4.1c2.2-1.7,3.8-3.7,5-5.9c1.2-2.2,1.8-4.5,1.8-6.9
		c0-3.7-0.7-6.7-2.2-9.1c-1.5-2.4-3.8-4.3-7-5.7c-3.2-1.4-7.4-2.3-12.6-2.9c-5.2-0.5-11.4-0.8-18.8-0.8v37H79.9z M63.7,150h20.9
		c6.6,0,11.6-1.7,14.8-5.1c3.3-3.4,4.9-7.9,4.9-13.3c0-3.2-0.6-6-1.7-8.3c-1.1-2.3-3.2-4.2-6.2-5.7s-7.1-2.6-12.4-3.4
		c-5.3-0.7-12.1-1.1-20.4-1.1V150z"/>
	<path class="st0" d="M178.6,16.2h51.8v130.1h55.5v33.3H178.6V16.2z"/>
	<path class="st0" d="M481.8,98.3c0-13.2,2.4-25,7.1-35.5s11.2-19.5,19.2-26.8c8.1-7.4,17.5-13,28.2-16.9s22.1-5.9,34.1-5.9
		c8.4,0,16.9,0.8,25.7,2.4c8.7,1.6,17.4,4.5,26,8.8l-6.6,41.2c-6.2-3.3-12.3-5.7-18.4-7.4c-6.1-1.6-11.6-2.5-16.7-2.5
		c-6.1,0-11.6,1-16.5,2.9s-9,4.7-12.4,8.4c-3.4,3.7-6,8.1-7.8,13.4S541,91.6,541,98.2c0,6.6,0.9,12.5,2.7,17.8s4.4,9.7,7.8,13.4
		c3.4,3.7,7.5,6.5,12.4,8.4s10.4,2.9,16.5,2.9c5.1,0,10.7-0.8,16.7-2.5c6.1-1.6,12.2-4.1,18.4-7.4l6.6,41.3c-8.6,4.2-17.3,7-26,8.5
		c-8.7,1.5-17.3,2.3-25.7,2.3c-12,0-23.4-1.9-34.1-5.8c-10.7-3.9-20.1-9.5-28.2-16.8c-8.1-7.3-14.5-16.2-19.2-26.6
		S481.8,111.4,481.8,98.3z"/>
	<path class="st0" d="M708.2,110.5v69.1h-56.3V16.2h56.3v72l41.5-72h60.4L768,94.6l46.8,85h-60.4l-42.4-77L708.2,110.5z"/>
	<path class="st0" d="M878.9,179.6V53.9h-44.3V16.2H987v37.7h-45.1v125.7H878.9z"/>
	<path class="st0" d="M1082.4,181.4c-11.4,0-21.6-1.7-30.6-5s-16.7-8.3-23.1-15c-6.3-6.7-11.2-15-14.5-25.1c-3.4-10.1-5-21.9-5-35.4
		V16.2h51.3V92c0,7.6,0.4,14.3,1.1,20.1s2.1,7.4,3.9,11.4c1.8,4.1,4.3,6.1,7.3,8.2c3.1,2.1,6.9,3.2,11.4,3.2c5,0,9.1-1.1,12.2-3.2
		s5.5-4.2,7.2-8.2c1.7-4.1,2.9-5.6,3.5-11.4s0.9-12.6,0.9-20.1V16.2h47.4v84.7c0,13.6-1.3,25.4-4,35.5s-6.8,18.4-12.4,25.1
		c-5.6,6.7-17.3,11.7-25.9,14.9C1104.6,179.7,1094.3,181.4,1082.4,181.4z"/>
	<path class="st0" d="M1255,16.2h55c4.8,0,10,0.2,15.8,0.5c5.7,0.3,11.5,1,17.3,2.1c5.8,1,11.4,2.5,16.8,4.4
		c5.4,1.9,10.2,4.4,14.4,7.4s7.5,6.8,10.1,11.2c2.5,4.4,3.8,9.7,3.8,15.8c0,3.6-0.4,7.2-1.3,10.8c-0.8,3.6-2.4,6.9-4.6,9.9
		s-5.2,5.6-9,7.9s-8.7,3.8-14.6,4.7c6.5,0.4,12.2,1.9,17.3,4.4c5,2.6,9.3,5.8,12.8,9.6c3.5,3.9,6.1,8.1,7.9,12.8
		c1.8,4.7,2.7,9.3,2.7,13.8c0,6.1-1.2,12-3.7,17.7c-2.5,5.7-6.6,10.9-12.4,15.4s-13.5,8.1-23.1,10.9c-9.6,2.7-21.4,4.1-35.6,4.1
		H1255V16.2z M1323,83.5c3.6,0,6.9-0.5,9.9-1.6c3-1,5.6-2.4,7.7-4.1c2.2-1.7,3.8-3.7,5-5.9c1.2-2.2,1.8-4.5,1.8-6.9
		c0-3.7-0.7-6.7-2.2-9.1c-1.5-2.4-3.8-4.3-7-5.7c-3.2-1.4-7.4-2.3-12.6-2.9c-5.2-0.5-11.4-0.8-18.8-0.8v37H1323z M1306.8,150h20.9
		c6.6,0,11.6-1.7,14.8-5.1c3.3-3.4,4.9-7.9,4.9-13.3c0-3.2-0.6-6-1.7-8.3s-3.2-4.2-6.2-5.7c-3-1.5-7.1-2.6-12.4-3.4
		s-12.1-1.1-20.4-1.1V150z"/>
	<path class="st0" d="M1418.1,16.2h114.6v30.3h-62.9v34.5h55.5v29.6h-55.5v35.7h62.9v33.3h-114.6V16.2z"/>
	<polygon class="st0" points="1161.7,181.7 1228.9,181.7 1195.3,131.6 	"/>
	<path class="st0" d="M454.4,77.2c-1.5-7-3.7-13.6-6.6-19.9c-3-6.3-6.7-12.2-11.2-17.6c-4.5-5.4-9.7-10.1-15.8-14
		c-6-3.9-12.9-7-20.5-9.2c-7.6-2.2-16-3.4-25.2-3.4c-9.2,0-17.7,1.1-25.2,3.4c-7.6,2.2-14.4,5.3-20.4,9.2s-11.2,8.6-15.7,14
		c-4.5,5.4-8.2,11.2-11.1,17.6c-2.9,6.3-5.1,13-6.6,19.9c-1.5,7-2.2,14-2.2,21.1c0,7.2,0.6,14.2,1.8,21.1c1.2,6.9,3.1,13.5,5.8,19.8
		c2.7,6.3,6.1,12.1,10.3,17.4c4.2,5.4,9.3,10,15.4,13.9c6,3.9,13,6.9,21,9.1c7.9,2.2,16.9,3.3,27,3.3c10.1,0,19.1-1.1,27.1-3.3
		c8-2.2,15-5.2,21-9.1c6-3.9,11.1-8.5,15.4-13.9c4.2-5.4,7.7-11.2,10.3-17.4c2.7-6.3,4.6-12.9,5.8-19.8c1.2-6.9,1.8-14,1.8-21.1
		C456.6,91.2,455.9,84.2,454.4,77.2z M358.7,131.6l0-67.2l50.1,33.6L358.7,131.6z"/>
</g>
</svg>
